<svg width="24" height="25" viewBox="0 0 24 25" fill="none" xmlns="http://www.w3.org/2000/svg">
<path fill-rule="evenodd" clip-rule="evenodd" d="M12.5702 12.375H15.4435C15.7509 12.375 16 12.6241 16 12.9314C16 13.2387 15.7509 13.4879 15.4435 13.4879H12.5702V16.3448C12.5702 16.6643 12.3112 16.9233 11.9917 16.9233C11.6721 16.9233 11.4131 16.6643 11.4131 16.3448V13.4879H8.55645C8.24913 13.4879 8 13.2387 8 12.9314C8 12.6241 8.24913 12.375 8.55645 12.375H11.4131V9.5019C11.4131 9.18237 11.6721 8.92334 11.9917 8.92334C12.3112 8.92334 12.5702 9.18237 12.5702 9.5019V12.375Z" fill="#1E1E3C"/>
</svg>
