<svg width="20" height="21" viewBox="0 0 20 21" fill="none" xmlns="http://www.w3.org/2000/svg">
<path fill-rule="evenodd" clip-rule="evenodd" d="M13.6918 20.09C14.9264 20.09 15.72 19.3336 15.7761 18.081L16.3213 6.36034H17.2031C17.604 6.36034 17.9166 6.04312 17.9166 5.63644C17.9166 5.23789 17.604 4.92067 17.2031 4.92067H13.6437V3.81449C13.6437 2.5619 12.7939 1.75667 11.423 1.75667H8.56095C7.19808 1.75667 6.34829 2.5619 6.34829 3.81449V4.92067H2.79682C2.40399 4.92067 2.08331 5.23789 2.08331 5.63644C2.08331 6.04312 2.40399 6.36034 2.79682 6.36034H3.68669L4.22382 18.081C4.28795 19.3417 5.07361 20.09 6.32424 20.09H13.6918ZM12.1445 4.92067H7.85547V3.88769C7.86349 3.44034 8.18416 3.12313 8.65716 3.12313H11.3348C11.8078 3.12313 12.1365 3.44034 12.1365 3.88769L12.1445 4.92067ZM13.5154 18.6341H6.48461C6.04368 18.6341 5.72301 18.3006 5.69896 17.8207L5.16182 6.36034H14.8222L14.3091 17.8207C14.285 18.3087 13.9724 18.6341 13.5154 18.6341ZM12.369 17.3001C12.6656 17.3001 12.8821 17.048 12.8981 16.7064L13.1386 8.36936C13.1466 8.02774 12.9142 7.76746 12.6175 7.76746C12.3289 7.76746 12.0884 8.03588 12.0804 8.36122L11.8399 16.6901C11.8319 17.0317 12.0563 17.3001 12.369 17.3001ZM7.63901 17.3001C7.94365 17.3001 8.17614 17.0317 8.16812 16.6901L7.92762 8.36122C7.91158 8.03588 7.67108 7.76746 7.39049 7.76746C7.08585 7.76746 6.86137 8.02774 6.86939 8.36936L7.1099 16.7064C7.11791 17.048 7.34239 17.3001 7.63901 17.3001ZM10.004 17.3001C10.2926 17.3001 10.5411 17.0317 10.5411 16.7064V8.36122C10.5411 8.03588 10.3006 7.76746 10.004 7.76746C9.70738 7.76746 9.46688 8.03588 9.46688 8.36122V16.7064C9.46688 17.0317 9.70738 17.3001 10.004 17.3001Z" fill="#C6CDD7"/>
</svg>
